{"title":"The Way West  (Western Adventure. 1967)  Excellent quality in a ","uid":9304222,"size":976288194,"categoryP":"video","categoryS":"movies","magnet":"?xt=urn:btih:126d74ca668e465bb78cd285f9f9b39902a658ec&amp;dn=The+Way+West++%28Western+Adventure.+1967%29++Excellent+quality+in+a+&amp;tr=udp%3A%2F%2Ftracker.openbittorrent.com%3A80&amp;tr=udp%3A%2F%2Fopen.demonii.com%3A1337&amp;tr=udp%3A%2F%2Ftracker.coppersurfer.tk%3A6969&amp;tr=udp%3A%2F%2Fexodus.desync.com%3A6969","seeders":2,"leechers":0,"uploader":"BurtonW","files":14,"time":1386289206,"description":" &lt;a href=&quot;http://www.imdb.com/title/tt0062479/?ref_=fn_al_tt_1&quot; rel=&quot;nofollow&quot; target=&quot;_NEW&quot;&gt;http://www.imdb.com/title/tt0062479/?ref_=fn_al_tt_1&lt;/a&gt;\n\n\nExcellent quality.\n\n\nNo subtitles!\n\n\nStoryline:\n\nIn the mid-19th century, Senator William J. Tadlock leads a group of settlers overland in a quest to start a new settlement in the Western US. Tadlock is a highly principled and demanding taskmaster who is as hard on himself as he is on those who have joined his wagon train. He clashes with one of the new settlers, Lije Evans, who doesn't quite appreciate Tadlock's ways. Along the way, the families must face death and heartbreak and a sampling of frontier justice when one of them accidentally kills a young Indian boy.\n\n\nTechnical info:\n\n\nGeneral:\n\nComplete name                  : The Way West  (Western Adventure 1967)  Kirk Douglas, Robert Mitchum &amp; Richard Widmark.mp4\nFormat                         : MPEG-4\nFormat profile                 : Base Media / Version 2\nCodec ID                       : mp42\nFile size                      : 930 MiB\nDuration                       : 2h 2mn\nOverall bit rate mode          : Variable\nOverall bit rate               : 1 065 Kbps\nEncoded date                   : UTC 2013-08-20 03:11:31\nTagged date                    : UTC 2013-08-20 05:42:37\n\n\nVideo:\n\nID                             : 1\nFormat                         : AVC\nFormat/Info                    : Advanced Video Codec\nFormat profile                 : &lt;a class=&quot;__cf_email__&quot; href=&quot;/cdn-cgi/l/email-protection&quot; data-cfemail=&quot;cf82aea6a18f83fbe1ff&quot;&gt;[email&amp;#160;protected]&lt;/a&gt;&lt;script data-cfhash='f9e31' type=&quot;text/javascript&quot;&gt;\n/* &lt;![CDATA[ */!function(){try{var t=&quot;currentScript&quot;in document?document.currentScript:function(){for(var t=document.getElementsByTagName(&quot;script&quot;),e=t.length;e--;)if(t[e].getAttribute(&quot;data-cfhash&quot;))return t[e]}();if(t&amp;&amp;t.previousSibling){var e,r,n,i,c=t.previousSibling,a=c.getAttribute(&quot;data-cfemail&quot;);if(a){for(e=&quot;&quot;,r=parseInt(a.substr(0,2),16),n=2;a.length-n;n+=2)i=parseInt(a.substr(n,2),16)^r,e+=String.fromCharCode(i);e=document.createTextNode(e),c.parentNode.replaceChild(e,c)}t.parentNode.removeChild(t);}}catch(u){}}()/* ]]&gt; */&lt;/script&gt;\nFormat settings, CABAC         : Yes\nFormat settings, ReFrames      : 4 frames\nCodec ID                       : avc1\nCodec ID/Info                  : Advanced Video Coding\nDuration                       : 2h 2mn\nBit rate mode                  : Variable\nBit rate                       : 900 Kbps\nWidth                          : 1 280 pixels\nHeight                         : 544 pixels\nDisplay aspect ratio           : 2.35:1\nFrame rate mode                : Variable\nFrame rate                     : 23.976 fps\nMinimum frame rate             : 23.256 fps\nMaximum frame rate             : 25.000 fps\nColor space                    : YUV\nChroma subsampling             : 4:2:0\nBit depth                      : 8 bits\nScan type                      : Progressive\nBits/(Pixel*Frame)             : 0.054\nStream size                    : 786 MiB (84%)\nWriting library                : x264 core 130 r2273 b3065e6\nEncoding settings              : Deleted\nEncoded date                   : UTC 2013-08-20 03:11:31\nTagged date                    : UTC 2013-08-20 05:42:37\nColor primaries                : BT.709\nTransfer characteristics       : BT.709\nMatrix coefficients            : BT.709\n\nAudio:\n\nID                             : 2\nFormat                         : AAC\nFormat/Info                    : Advanced Audio Codec\nFormat profile                 : LC\nCodec ID                       : 40\nDuration                       : 2h 2mn\nBit rate mode                  : Variable\nBit rate                       : 160 Kbps\nMaximum bit rate               : 193 Kbps\nChannel(s)                     : 2 channels\nChannel positions              : Front: L R\nSampling rate                  : 48.0 KHz\nCompression mode               : Lossy\nDelay relative to video        : 83ms\nStream size                    : 140 MiB (15%)\nLanguage                       : English\nEncoded date                   : UTC 2013-08-20 03:11:31\nTagged date                    : UTC 2013-08-20 05:42:36\n","torrent":{"xt":"urn:btih:126d74ca668e465bb78cd285f9f9b39902a658ec","amp;dn":"The+Way+West++%28Western+Adventure.+1967%29++Excellent+quality+in+a+","amp;tr":["udp%3A%2F%2Ftracker.openbittorrent.com%3A80","udp%3A%2F%2Fopen.demonii.com%3A1337","udp%3A%2F%2Ftracker.coppersurfer.tk%3A6969","udp%3A%2F%2Fexodus.desync.com%3A6969"],"infoHash":"126d74ca668e465bb78cd285f9f9b39902a658ec","infoHashBuffer":{"type":"Buffer","data":[18,109,116,202,102,142,70,91,183,140,210,133,249,249,179,153,2,166,88,236]},"announce":[],"urlList":[]}}